# xmcd CD database file
#
# Track frame offsets:
#	150
#	20155
#	46033
#	76154
#	101056
#	126250
#	146293
#	165965
#
# Disc length: 2406 seconds
#
# Revision: 0
# Processed by: cddbd v1.5.2PL0 Copyright (c) Steve Scherf et al.
# Submitted via: CDex 1.70beta2
#
DISCID=5a096408
DTITLE=Abisko Lights - Point of View
DYEAR=2019
DGENRE=Jazz
TTITLE0=Good Night Berlin
TTITLE1=Assam Special Blend
TTITLE2=Four Days in November
TTITLE3=Point of View
TTITLE4=Abisko Lights
TTITLE5=Fjäril
TTITLE6=Crescent
TTITLE7=Nocturne
EXTD=YEAR: 2019
EXTT0=
EXTT1=
EXTT2=
EXTT3=
EXTT4=
EXTT5=
EXTT6=
EXTT7=
PLAYORDER=
